<?xml version="1.0" standalone="no"?>
 <!DOCTYPE svg PUBLIC "-//W3C//DTD SVG 1.1//EN" 
 "http://www.w3.org/Graphics/SVG/1.1/DTD/svg11.dtd"> 
<svg
  xmlns:svg="http://www.w3.org/2000/svg"
  xmlns="http://www.w3.org/2000/svg"
  xmlns:xlink="http://www.w3.org/1999/xlink"
  version="1.1"
  width="29.700220cm" height="21.000720cm" viewBox="0 0 116930 82680">
<title>SVG Picture created as prueba kicad 2-F_Fab.svg date 2020/08/03 15:04:28 </title>
  <desc>Picture generated by PCBNEW </desc>
<g style="fill:#000000; fill-opacity:1;stroke:#000000; stroke-opacity:1;
stroke-linecap:round; stroke-linejoin:round;"
 transform="translate(0 0) scale(1 1)">
</g>
<g style="fill:#000000; fill-opacity:0.0; 
stroke:#000000; stroke-width:-0.000393701; stroke-opacity:1; 
stroke-linecap:round; stroke-linejoin:round;">
</g>
<g style="fill:#000000; fill-opacity:0.0; 
stroke:#000000; stroke-width:39.3701; stroke-opacity:1; 
stroke-linecap:round; stroke-linejoin:round;">
<path d="M14775 13659
L14381 13265
" />
<path d="M18381 13659
L14775 13659
" />
<path d="M18381 11159
L18381 13659
" />
<path d="M14381 11159
L18381 11159
" />
<path d="M14381 13265
L14381 11159
" />
<path d="M12933 11625
L11948 11625
" />
<path d="M11948 11625
L11948 14106
" />
<path d="M11948 14106
L12933 14106
" />
<path d="M12933 14106
L12933 11625
" />
<path d="M12440 10866
L12440 11625
" />
<path d="M12440 14866
L12440 14106
" />
<path d="M23413 14350
L23413 13366
" />
<path d="M23413 13366
L20933 13366
" />
<path d="M20933 13366
L20933 14350
" />
<path d="M20933 14350
L23413 14350
" />
<path d="M24173 13858
L23413 13858
" />
<path d="M20173 13858
L20933 13858
" />
<path d="M21838 9547
L21838 8562
" />
<path d="M21838 8562
L19358 8562
" />
<path d="M19358 8562
L19358 9547
" />
<path d="M19358 9547
L21838 9547
" />
<path d="M22598 9055
L21838 9055
" />
<path d="M18598 9055
L19358 9055
" />
<path d="M25118 8858
L25118 9448
" />
<path d="M25118 9448
L23543 9448
" />
<path d="M23543 9448
L23543 8661
" />
<path d="M23543 8661
L24921 8661
" />
<path d="M24921 8661
L25118 8858
" />
<path d="M12913 8996
L11811 8996
" />
<path d="M11811 8799
L12913 8799
" />
<path d="M12913 8799
L12913 8996
" />
<path d="M11811 8996
L11811 8799
" />
<path d="M10393 9940
L9291 9940
" />
<path d="M9291 9744
L10393 9744
" />
<path d="M10393 9744
L10393 9940
" />
<path d="M9291 9940
L9291 9744
" />
<path d="M10393 15885
L9291 15885
" />
<path d="M9291 15688
L10393 15688
" />
<path d="M10393 15688
L10393 15885
" />
<path d="M9291 15885
L9291 15688
" />
<path d="M27074 12704
L27074 11547
" />
<circle cx="26090.6" cy="12126" r="984.252" /> 
<path d="M27074.8 11547.4 A1141.73 1141.73 0.0 1 0 27074.8 12704.6" />
<g >
</g>
<g >
</g>
<g >
</g>
<g >
</g>
<g >
</g>
<g >
</g>
<g >
</g>
<g >
</g>
<g >
</g>
</g>
<g style="fill:#000000; fill-opacity:0.0; 
stroke:#000000; stroke-width:39.3701; stroke-opacity:1; 
stroke-linecap:round; stroke-linejoin:round;">
</g>
<g style="fill:#000000; fill-opacity:0.0; 
stroke:#000000; stroke-width:59.0551; stroke-opacity:1; 
stroke-linecap:round; stroke-linejoin:round;">
<g transform="rotate(-90 18799.2 12409.4)">
<text x="18799.2" y="12606.3"
textLength="4576.21" font-size="524.934" lengthAdjust="spacingAndGlyphs"
text-anchor="middle" opacity="0">ATtiny85-20PU</text>
</g>
<path d="M18864 14584
L18864 14396
" />
<path d="M18977 14621
L18583 14490
L18977 14359
" />
<path d="M18583 14284
L18583 14059
" />
<path d="M18977 14171
L18583 14171
" />
<path d="M18714 13984
L18714 13834
" />
<path d="M18583 13928
L18921 13928
L18958 13909
L18977 13871
L18977 13834
" />
<path d="M18977 13703
L18714 13703
" />
<path d="M18583 13703
L18602 13721
L18621 13703
L18602 13684
L18583 13703
L18621 13703
" />
<path d="M18714 13515
L18977 13515
" />
<path d="M18752 13515
L18733 13496
L18714 13459
L18714 13403
L18733 13365
L18771 13346
L18977 13346
" />
<path d="M18714 13196
L18977 13103
" />
<path d="M18714 13009
L18977 13103
L19071 13140
L19089 13159
L19108 13196
" />
<path d="M18752 12803
L18733 12840
L18714 12859
L18677 12878
L18658 12878
L18621 12859
L18602 12840
L18583 12803
L18583 12728
L18602 12690
L18621 12671
L18658 12653
L18677 12653
L18714 12671
L18733 12690
L18752 12728
L18752 12803
L18771 12840
L18789 12859
L18827 12878
L18902 12878
L18939 12859
L18958 12840
L18977 12803
L18977 12728
L18958 12690
L18939 12671
L18902 12653
L18827 12653
L18789 12671
L18771 12690
L18752 12728
" />
<path d="M18583 12296
L18583 12484
L18771 12503
L18752 12484
L18733 12446
L18733 12353
L18752 12315
L18771 12296
L18808 12278
L18902 12278
L18939 12296
L18958 12315
L18977 12353
L18977 12446
L18958 12484
L18939 12503
" />
<path d="M18827 12109
L18827 11809
" />
<path d="M18621 11640
L18602 11622
L18583 11584
L18583 11490
L18602 11453
L18621 11434
L18658 11415
L18696 11415
L18752 11434
L18977 11659
L18977 11415
" />
<path d="M18583 11172
L18583 11134
L18602 11097
L18621 11078
L18658 11059
L18733 11040
L18827 11040
L18902 11059
L18939 11078
L18958 11097
L18977 11134
L18977 11172
L18958 11209
L18939 11228
L18902 11247
L18827 11265
L18733 11265
L18658 11247
L18621 11228
L18602 11209
L18583 11172
" />
<path d="M18977 10872
L18583 10872
L18583 10722
L18602 10684
L18621 10665
L18658 10647
L18714 10647
L18752 10665
L18771 10684
L18789 10722
L18789 10872
" />
<path d="M18583 10478
L18902 10478
L18939 10459
L18958 10440
L18977 10403
L18977 10328
L18958 10290
L18939 10272
L18902 10253
L18583 10253
" />
<g transform="rotate(-90 16381.9 12409.4)">
<text x="16381.9" y="12606.3"
textLength="864.173" font-size="524.934" lengthAdjust="spacingAndGlyphs"
text-anchor="middle" opacity="0">U1</text>
</g>
<path d="M16166 12709
L16485 12709
L16522 12690
L16541 12671
L16559 12634
L16559 12559
L16541 12521
L16522 12503
L16485 12484
L16166 12484
" />
<path d="M16559 12090
L16559 12315
" />
<path d="M16559 12203
L16166 12203
L16222 12240
L16260 12278
L16278 12315
" />
<g transform="rotate(-90 11507.9 12866.1)">
<text x="11507.9" y="13063"
textLength="1220.38" font-size="524.934" lengthAdjust="spacingAndGlyphs"
text-anchor="middle" opacity="0">10K</text>
</g>
<path d="M11685 13137
L11685 13362
" />
<path d="M11685 13250
L11292 13250
L11348 13287
L11386 13325
L11404 13362
" />
<path d="M11292 12894
L11292 12856
L11311 12819
L11329 12800
L11367 12781
L11442 12763
L11535 12763
L11610 12781
L11648 12800
L11667 12819
L11685 12856
L11685 12894
L11667 12931
L11648 12950
L11610 12969
L11535 12988
L11442 12988
L11367 12969
L11329 12950
L11311 12931
L11292 12894
" />
<path d="M11685 12594
L11292 12594
" />
<path d="M11685 12369
L11461 12538
" />
<path d="M11292 12369
L11517 12594
" />
<g transform="rotate(-90 12440.9 12866.1)">
<text x="12440.9" y="13063"
textLength="845.426" font-size="524.934" lengthAdjust="spacingAndGlyphs"
text-anchor="middle" opacity="0">R3</text>
</g>
<path d="M12619 12931
L12431 13062
" />
<path d="M12619 13156
L12225 13156
L12225 13006
L12244 12969
L12262 12950
L12300 12931
L12356 12931
L12394 12950
L12412 12969
L12431 13006
L12431 13156
" />
<path d="M12225 12800
L12225 12556
L12375 12688
L12375 12631
L12394 12594
L12412 12575
L12450 12556
L12544 12556
L12581 12575
L12600 12594
L12619 12631
L12619 12744
L12600 12781
L12581 12800
" />
<text x="22173.2" y="13122"
textLength="826.678" font-size="524.934" lengthAdjust="spacingAndGlyphs"
text-anchor="middle" opacity="0">47</text>
<path d="M22060 12840
L22060 13103
" />
<path d="M21967 12690
L21873 12972
L22116 12972
" />
<path d="M22229 12709
L22491 12709
L22323 13103
" />
<text x="22173.2" y="14055.1"
textLength="845.426" font-size="524.934" lengthAdjust="spacingAndGlyphs"
text-anchor="middle" opacity="0">R2</text>
<path d="M22107 14036
L21976 13848
" />
<path d="M21882 14036
L21882 13642
L22032 13642
L22070 13661
L22088 13680
L22107 13717
L22107 13773
L22088 13811
L22070 13830
L22032 13848
L21882 13848
" />
<path d="M22257 13680
L22276 13661
L22313 13642
L22407 13642
L22445 13661
L22463 13680
L22482 13717
L22482 13755
L22463 13811
L22238 14036
L22482 14036
" />
<text x="20629.9" y="10826.8"
textLength="1407.86" font-size="524.934" lengthAdjust="spacingAndGlyphs"
text-anchor="middle" opacity="0">2.2K</text>
<path d="M20039 10451
L20058 10433
L20095 10414
L20189 10414
L20226 10433
L20245 10451
L20264 10489
L20264 10526
L20245 10583
L20020 10808
L20264 10808
" />
<path d="M20433 10770
L20451 10789
L20433 10808
L20414 10789
L20433 10770
L20433 10808
" />
<path d="M20601 10451
L20620 10433
L20658 10414
L20751 10414
L20789 10433
L20808 10451
L20826 10489
L20826 10526
L20808 10583
L20583 10808
L20826 10808
" />
<path d="M20995 10808
L20995 10414
" />
<path d="M21220 10808
L21051 10583
" />
<path d="M21220 10414
L20995 10639
" />
<text x="20598.4" y="9251.97"
textLength="845.426" font-size="524.934" lengthAdjust="spacingAndGlyphs"
text-anchor="middle" opacity="0">R1</text>
<path d="M20532 9233
L20401 9045
" />
<path d="M20307 9233
L20307 8839
L20457 8839
L20495 8858
L20514 8877
L20532 8914
L20532 8970
L20514 9008
L20495 9026
L20457 9045
L20307 9045
" />
<path d="M20907 9233
L20682 9233
" />
<path d="M20795 9233
L20795 8839
L20757 8895
L20720 8933
L20682 8952
" />
<g transform="rotate(-90 23126 9055.12)">
<text x="23126" y="9251.97"
textLength="1145.39" font-size="524.934" lengthAdjust="spacingAndGlyphs"
text-anchor="middle" opacity="0">LED</text>
</g>
<path d="M23304 9308
L23304 9495
L22910 9495
" />
<path d="M23097 9176
L23097 9045
" />
<path d="M23304 8989
L23304 9176
L22910 9176
L22910 8989
" />
<path d="M23304 8820
L22910 8820
L22910 8727
L22929 8670
L22966 8633
L23004 8614
L23079 8595
L23135 8595
L23210 8614
L23247 8633
L23285 8670
L23304 8727
L23304 8820
" />
<text x="24330.7" y="9251.97"
textLength="845.426" font-size="524.934" lengthAdjust="spacingAndGlyphs"
text-anchor="middle" opacity="0">D1</text>
<path d="M24040 9233
L24040 8839
L24133 8839
L24190 8858
L24227 8895
L24246 8933
L24265 9008
L24265 9064
L24246 9139
L24227 9176
L24190 9214
L24133 9233
L24040 9233
" />
<path d="M24640 9233
L24415 9233
" />
<path d="M24527 9233
L24527 8839
L24490 8895
L24452 8933
L24415 8952
" />
<text x="15118.1" y="8779.53"
textLength="3957.54" font-size="524.934" lengthAdjust="spacingAndGlyphs"
text-anchor="middle" opacity="0">Battery Level</text>
<path d="M13402 8554
L13458 8573
L13477 8592
L13496 8629
L13496 8685
L13477 8723
L13458 8742
L13421 8760
L13271 8760
L13271 8367
L13402 8367
L13440 8385
L13458 8404
L13477 8442
L13477 8479
L13458 8517
L13440 8535
L13402 8554
L13271 8554
" />
<path d="M13833 8760
L13833 8554
L13815 8517
L13777 8498
L13702 8498
L13665 8517
" />
<path d="M13833 8742
L13796 8760
L13702 8760
L13665 8742
L13646 8704
L13646 8667
L13665 8629
L13702 8610
L13796 8610
L13833 8592
" />
<path d="M13965 8498
L14115 8498
" />
<path d="M14021 8367
L14021 8704
L14040 8742
L14077 8760
L14115 8760
" />
<path d="M14190 8498
L14340 8498
" />
<path d="M14246 8367
L14246 8704
L14265 8742
L14302 8760
L14340 8760
" />
<path d="M14621 8742
L14583 8760
L14508 8760
L14471 8742
L14452 8704
L14452 8554
L14471 8517
L14508 8498
L14583 8498
L14621 8517
L14640 8554
L14640 8592
L14452 8629
" />
<path d="M14808 8760
L14808 8498
" />
<path d="M14808 8573
L14827 8535
L14846 8517
L14883 8498
L14921 8498
" />
<path d="M15014 8498
L15108 8760
" />
<path d="M15202 8498
L15108 8760
L15071 8854
L15052 8873
L15014 8892
" />
<path d="M15839 8760
L15652 8760
L15652 8367
" />
<path d="M16121 8742
L16083 8760
L16008 8760
L15971 8742
L15952 8704
L15952 8554
L15971 8517
L16008 8498
L16083 8498
L16121 8517
L16139 8554
L16139 8592
L15952 8629
" />
<path d="M16271 8498
L16364 8760
L16458 8498
" />
<path d="M16758 8742
L16721 8760
L16646 8760
L16608 8742
L16589 8704
L16589 8554
L16608 8517
L16646 8498
L16721 8498
L16758 8517
L16777 8554
L16777 8592
L16589 8629
" />
<path d="M17002 8760
L16964 8742
L16946 8704
L16946 8367
" />
<text x="12362.2" y="9980.31"
textLength="751.687" font-size="524.934" lengthAdjust="spacingAndGlyphs"
text-anchor="middle" opacity="0">J3</text>
<path d="M12230 9567
L12230 9849
L12212 9905
L12174 9942
L12118 9961
L12080 9961
" />
<path d="M12380 9567
L12624 9567
L12493 9717
L12549 9717
L12587 9736
L12605 9755
L12624 9792
L12624 9886
L12605 9924
L12587 9942
L12549 9961
L12437 9961
L12399 9942
L12380 9924
" />
<text x="9842.52" y="9232.28"
textLength="1276.62" font-size="524.934" lengthAdjust="spacingAndGlyphs"
text-anchor="middle" opacity="0">GND</text>
<path d="M9542 8838
L9505 8819
L9448 8819
L9392 8838
L9355 8876
L9336 8913
L9317 8988
L9317 9044
L9336 9119
L9355 9157
L9392 9194
L9448 9213
L9486 9213
L9542 9194
L9561 9176
L9561 9044
L9486 9044
" />
<path d="M9730 9213
L9730 8819
L9955 9213
L9955 8819
" />
<path d="M10142 9213
L10142 8819
L10236 8819
L10292 8838
L10329 8876
L10348 8913
L10367 8988
L10367 9044
L10348 9119
L10329 9157
L10292 9194
L10236 9213
L10142 9213
" />
<text x="9842.52" y="10925.2"
textLength="751.687" font-size="524.934" lengthAdjust="spacingAndGlyphs"
text-anchor="middle" opacity="0">J2</text>
<path d="M9711 10512
L9711 10793
L9692 10850
L9655 10887
L9598 10906
L9561 10906
" />
<path d="M9880 10550
L9898 10531
L9936 10512
L10029 10512
L10067 10531
L10086 10550
L10104 10587
L10104 10625
L10086 10681
L9861 10906
L10104 10906
" />
<text x="9842.52" y="15177.2"
textLength="1276.62" font-size="524.934" lengthAdjust="spacingAndGlyphs"
text-anchor="middle" opacity="0">+5V</text>
<path d="M9336 15008
L9636 15008
" />
<path d="M9486 15158
L9486 14858
" />
<path d="M10011 14764
L9823 14764
L9805 14952
L9823 14933
L9861 14914
L9955 14914
L9992 14933
L10011 14952
L10029 14989
L10029 15083
L10011 15120
L9992 15139
L9955 15158
L9861 15158
L9823 15139
L9805 15120
" />
<path d="M10142 14764
L10273 15158
L10404 14764
" />
<text x="9842.52" y="16870.1"
textLength="751.687" font-size="524.934" lengthAdjust="spacingAndGlyphs"
text-anchor="middle" opacity="0">J1</text>
<path d="M9711 16457
L9711 16738
L9692 16795
L9655 16832
L9598 16851
L9561 16851
" />
<path d="M10104 16851
L9880 16851
" />
<path d="M9992 16851
L9992 16457
L9955 16513
L9917 16551
L9880 16570
" />
<text x="26090.6" y="10763.8"
textLength="2026.53" font-size="524.934" lengthAdjust="spacingAndGlyphs"
text-anchor="middle" opacity="0">IR LED</text>
<path d="M25209 10745
L25209 10351
" />
<path d="M25621 10745
L25490 10557
" />
<path d="M25396 10745
L25396 10351
L25546 10351
L25584 10370
L25603 10388
L25621 10426
L25621 10482
L25603 10520
L25584 10538
L25546 10557
L25396 10557
" />
<path d="M26278 10745
L26090 10745
L26090 10351
" />
<path d="M26409 10538
L26540 10538
" />
<path d="M26596 10745
L26409 10745
L26409 10351
L26596 10351
" />
<path d="M26765 10745
L26765 10351
L26859 10351
L26915 10370
L26952 10407
L26971 10445
L26990 10520
L26990 10576
L26971 10651
L26952 10688
L26915 10726
L26859 10745
L26765 10745
" />
</g>
<g style="fill:#000000; fill-opacity:0.0; 
stroke:#000000; stroke-width:78.7402; stroke-opacity:1; 
stroke-linecap:round; stroke-linejoin:round;">
<text x="26098.4" y="12283.5"
textLength="691.695" font-size="419.947" lengthAdjust="spacingAndGlyphs"
text-anchor="middle" opacity="0">D2</text>
<path d="M25865 12268
L25865 11953
L25940 11953
L25985 11968
L26015 11998
L26030 12028
L26045 12088
L26045 12133
L26030 12193
L26015 12223
L25985 12253
L25940 12268
L25865 12268
" />
<path d="M26165 11983
L26180 11968
L26210 11953
L26285 11953
L26315 11968
L26330 11983
L26345 12013
L26345 12043
L26330 12088
L26150 12268
L26345 12268
" />
<g >
</g>
</g> 
</svg>
