<?xml version="1.0" standalone="no"?>
 <!DOCTYPE svg PUBLIC "-//W3C//DTD SVG 1.1//EN" 
 "http://www.w3.org/Graphics/SVG/1.1/DTD/svg11.dtd"> 
<svg
  xmlns:svg="http://www.w3.org/2000/svg"
  xmlns="http://www.w3.org/2000/svg"
  xmlns:xlink="http://www.w3.org/1999/xlink"
  version="1.1"
  width="29.700220cm" height="21.000720cm" viewBox="0 0 116930 82680">
<title>SVG Picture created as prueba kicad 2-F_SilkS.svg date 2020/08/03 15:04:28 </title>
  <desc>Picture generated by PCBNEW </desc>
<g style="fill:#000000; fill-opacity:1;stroke:#000000; stroke-opacity:1;
stroke-linecap:round; stroke-linejoin:round;"
 transform="translate(0 0) scale(1 1)">
</g>
<g style="fill:#000000; fill-opacity:0.0; 
stroke:#000000; stroke-width:-0.000393701; stroke-opacity:1; 
stroke-linecap:round; stroke-linejoin:round;">
</g>
<g style="fill:#000000; fill-opacity:0.0; 
stroke:#000000; stroke-width:59.0551; stroke-opacity:1; 
stroke-linecap:round; stroke-linejoin:round;">
<text x="12677.2" y="17047.2"
textLength="1339.71" font-size="524.934" lengthAdjust="spacingAndGlyphs"
text-anchor="middle" opacity="0">v2.1</text>
<path d="M12114 16766
L12208 17028
L12302 16766
" />
<path d="M12433 16672
L12452 16653
L12489 16634
L12583 16634
L12620 16653
L12639 16672
L12658 16709
L12658 16747
L12639 16803
L12414 17028
L12658 17028
" />
<path d="M12827 16991
L12845 17009
L12827 17028
L12808 17009
L12827 16991
L12827 17028
" />
<path d="M13220 17028
L12995 17028
" />
<path d="M13108 17028
L13108 16634
L13070 16691
L13033 16728
L12995 16747
" />
<text x="19370.1" y="16220.5"
textLength="14849.9" font-size="1049.87" lengthAdjust="spacingAndGlyphs"
text-anchor="middle" opacity="0">roomba-like virtual wall</text>
<path d="M12170 16182
L12170 15658
" />
<path d="M12170 15808
L12208 15733
L12245 15695
L12320 15658
L12395 15658
" />
<path d="M12770 16182
L12695 16145
L12658 16107
L12620 16032
L12620 15808
L12658 15733
L12695 15695
L12770 15658
L12883 15658
L12958 15695
L12995 15733
L13033 15808
L13033 16032
L12995 16107
L12958 16145
L12883 16182
L12770 16182
" />
<path d="M13483 16182
L13408 16145
L13370 16107
L13333 16032
L13333 15808
L13370 15733
L13408 15695
L13483 15658
L13595 15658
L13670 15695
L13708 15733
L13745 15808
L13745 16032
L13708 16107
L13670 16145
L13595 16182
L13483 16182
" />
<path d="M14083 16182
L14083 15658
" />
<path d="M14083 15733
L14120 15695
L14195 15658
L14308 15658
L14383 15695
L14420 15770
L14420 16182
" />
<path d="M14420 15770
L14458 15695
L14533 15658
L14645 15658
L14720 15695
L14758 15770
L14758 16182
" />
<path d="M15133 16182
L15133 15395
" />
<path d="M15133 15695
L15208 15658
L15358 15658
L15433 15695
L15470 15733
L15508 15808
L15508 16032
L15470 16107
L15433 16145
L15358 16182
L15208 16182
L15133 16145
" />
<path d="M16182 16182
L16182 15770
L16145 15695
L16070 15658
L15920 15658
L15845 15695
" />
<path d="M16182 16145
L16107 16182
L15920 16182
L15845 16145
L15808 16070
L15808 15995
L15845 15920
L15920 15883
L16107 15883
L16182 15845
" />
<path d="M16557 15883
L17157 15883
" />
<path d="M17645 16182
L17570 16145
L17532 16070
L17532 15395
" />
<path d="M17945 16182
L17945 15658
" />
<path d="M17945 15395
L17907 15433
L17945 15470
L17982 15433
L17945 15395
L17945 15470
" />
<path d="M18320 16182
L18320 15395
" />
<path d="M18395 15883
L18620 16182
" />
<path d="M18620 15658
L18320 15958
" />
<path d="M19257 16145
L19182 16182
L19032 16182
L18957 16145
L18920 16070
L18920 15770
L18957 15695
L19032 15658
L19182 15658
L19257 15695
L19295 15770
L19295 15845
L18920 15920
" />
<path d="M20157 15658
L20344 16182
L20532 15658
" />
<path d="M20832 16182
L20832 15658
" />
<path d="M20832 15395
L20794 15433
L20832 15470
L20869 15433
L20832 15395
L20832 15470
" />
<path d="M21207 16182
L21207 15658
" />
<path d="M21207 15808
L21244 15733
L21282 15695
L21357 15658
L21432 15658
" />
<path d="M21582 15658
L21882 15658
" />
<path d="M21694 15395
L21694 16070
L21732 16145
L21807 16182
L21882 16182
" />
<path d="M22482 15658
L22482 16182
" />
<path d="M22144 15658
L22144 16070
L22182 16145
L22257 16182
L22369 16182
L22444 16145
L22482 16107
" />
<path d="M23194 16182
L23194 15770
L23157 15695
L23082 15658
L22932 15658
L22857 15695
" />
<path d="M23194 16145
L23119 16182
L22932 16182
L22857 16145
L22819 16070
L22819 15995
L22857 15920
L22932 15883
L23119 15883
L23194 15845
" />
<path d="M23682 16182
L23607 16145
L23569 16070
L23569 15395
" />
<path d="M24506 15658
L24656 16182
L24806 15808
L24956 16182
L25106 15658
" />
<path d="M25744 16182
L25744 15770
L25706 15695
L25631 15658
L25481 15658
L25406 15695
" />
<path d="M25744 16145
L25669 16182
L25481 16182
L25406 16145
L25369 16070
L25369 15995
L25406 15920
L25481 15883
L25669 15883
L25744 15845
" />
<path d="M26231 16182
L26156 16145
L26119 16070
L26119 15395
" />
<path d="M26644 16182
L26569 16145
L26531 16070
L26531 15395
" />
</g>
<g style="fill:#000000; fill-opacity:0.0; 
stroke:#000000; stroke-width:47.2441; stroke-opacity:1; 
stroke-linecap:round; stroke-linejoin:round;">
<path d="M14358 11366
L14358 12015
" />
<path d="M18405 11366
L14358 11366
" />
<path d="M18405 13452
L18405 11366
" />
<path d="M14358 13452
L18405 13452
" />
<path d="M14358 12803
L14358 13452
" />
<path d="M14358.3 12803.1 A393.701 393.701 0.0 0 0 14358.3 12015.7" />
<path d="M12980 11578
L11901 11578
" />
<path d="M11901 11578
L11901 14153
" />
<path d="M11901 14153
L12980 14153
" />
<path d="M12980 14153
L12980 11578
" />
<path d="M12440 11275
L12440 11578
" />
<path d="M12440 14456
L12440 14153
" />
<path d="M23460 14397
L23460 13318
" />
<path d="M23460 13318
L20885 13318
" />
<path d="M20885 13318
L20885 14397
" />
<path d="M20885 14397
L23460 14397
" />
<path d="M23763 13858
L23460 13858
" />
<path d="M20582 13858
L20885 13858
" />
<path d="M21885 9594
L21885 8515
" />
<path d="M21885 8515
L19311 8515
" />
<path d="M19311 8515
L19311 9594
" />
<path d="M19311 9594
L21885 9594
" />
<path d="M22188 9055
L21885 9055
" />
<path d="M19007 9055
L19311 9055
" />
<path d="M23519 8637
L23519 9472
" />
<path d="M24330 8637
L23519 8637
" />
<path d="M24330 9472
L23519 9472
" />
<path d="M24330 8637
L24330 9472
" />
<path d="M24724 8637
L25141 8637
" />
<path d="M25141 8637
L25141 9055
" />
<path d="M11771 8346
L12952 8346
" />
<path d="M12952 8346
L12952 9468
" />
<path d="M11771 8346
L11771 9468
" />
<path d="M11771 9468
L12952 9468
" />
<path d="M9251 9291
L10433 9291
" />
<path d="M10433 9291
L10433 10413
" />
<path d="M9251 9291
L9251 10413
" />
<path d="M9251 10413
L10433 10413
" />
<path d="M9251 15236
L10433 15236
" />
<path d="M10433 15236
L10433 16358
" />
<path d="M9251 15236
L9251 16358
" />
<path d="M9251 16358
L10433 16358
" />
<path d="M27098 12734
L27098 11517
" />
<circle cx="26090.6" cy="12126" r="984.252" /> 
<path d="M27098.4 11517.8 A1177.17 1177.17 0.0 0 0 24913.4 12126.2" />
<path d="M24913.4 12125.8 A1177.17 1177.17 0.0 0 0 27098.4 12734.2" />
</g>
<g style="fill:#000000; fill-opacity:0.0; 
stroke:#000000; stroke-width:59.0551; stroke-opacity:1; 
stroke-linecap:round; stroke-linejoin:round;">
<g transform="rotate(-90 13964.6 12409.4)">
<text x="13964.6" y="12606.3"
textLength="864.173" font-size="524.934" lengthAdjust="spacingAndGlyphs"
text-anchor="middle" opacity="0">U1</text>
</g>
<path d="M13748 12709
L14067 12709
L14105 12690
L14123 12671
L14142 12634
L14142 12559
L14123 12521
L14105 12503
L14067 12484
L13748 12484
" />
<path d="M14142 12090
L14142 12315
" />
<path d="M14142 12203
L13748 12203
L13805 12240
L13842 12278
L13861 12315
" />
<g transform="rotate(-90 13374 12866.1)">
<text x="13374" y="13063"
textLength="845.426" font-size="524.934" lengthAdjust="spacingAndGlyphs"
text-anchor="middle" opacity="0">R3</text>
</g>
<path d="M13552 12931
L13364 13062
" />
<path d="M13552 13156
L13158 13156
L13158 13006
L13177 12969
L13195 12950
L13233 12931
L13289 12931
L13327 12950
L13345 12969
L13364 13006
L13364 13156
" />
<path d="M13158 12800
L13158 12556
L13308 12688
L13308 12631
L13327 12594
L13345 12575
L13383 12556
L13477 12556
L13514 12575
L13533 12594
L13552 12631
L13552 12744
L13533 12781
L13514 12800
" />
<text x="22173.2" y="14988.2"
textLength="845.426" font-size="524.934" lengthAdjust="spacingAndGlyphs"
text-anchor="middle" opacity="0">R2</text>
<path d="M22107 14969
L21976 14781
" />
<path d="M21882 14969
L21882 14575
L22032 14575
L22070 14594
L22088 14613
L22107 14650
L22107 14706
L22088 14744
L22070 14763
L22032 14781
L21882 14781
" />
<path d="M22257 14613
L22276 14594
L22313 14575
L22407 14575
L22445 14594
L22463 14613
L22482 14650
L22482 14688
L22463 14744
L22238 14969
L22482 14969
" />
<text x="20598.4" y="10185"
textLength="845.426" font-size="524.934" lengthAdjust="spacingAndGlyphs"
text-anchor="middle" opacity="0">R1</text>
<path d="M20532 10166
L20401 9978
" />
<path d="M20307 10166
L20307 9772
L20457 9772
L20495 9791
L20514 9810
L20532 9847
L20532 9903
L20514 9941
L20495 9960
L20457 9978
L20307 9978
" />
<path d="M20907 10166
L20682 10166
" />
<path d="M20795 10166
L20795 9772
L20757 9828
L20720 9866
L20682 9885
" />
<g transform="rotate(-90 25535.4 9055.12)">
<text x="25535.4" y="9251.97"
textLength="845.426" font-size="524.934" lengthAdjust="spacingAndGlyphs"
text-anchor="middle" opacity="0">D1</text>
</g>
<path d="M25713 9345
L25319 9345
L25319 9251
L25338 9195
L25376 9158
L25413 9139
L25488 9120
L25544 9120
L25619 9139
L25657 9158
L25694 9195
L25713 9251
L25713 9345
" />
<path d="M25713 8745
L25713 8970
" />
<path d="M25713 8858
L25319 8858
L25376 8895
L25413 8933
L25432 8970
" />
<text x="12362.2" y="9980.31"
textLength="751.687" font-size="524.934" lengthAdjust="spacingAndGlyphs"
text-anchor="middle" opacity="0">J3</text>
<path d="M12230 9567
L12230 9849
L12212 9905
L12174 9942
L12118 9961
L12080 9961
" />
<path d="M12380 9567
L12624 9567
L12493 9717
L12549 9717
L12587 9736
L12605 9755
L12624 9792
L12624 9886
L12605 9924
L12587 9942
L12549 9961
L12437 9961
L12399 9942
L12380 9924
" />
<text x="9842.52" y="10925.2"
textLength="751.687" font-size="524.934" lengthAdjust="spacingAndGlyphs"
text-anchor="middle" opacity="0">J2</text>
<path d="M9711 10512
L9711 10793
L9692 10850
L9655 10887
L9598 10906
L9561 10906
" />
<path d="M9880 10550
L9898 10531
L9936 10512
L10029 10512
L10067 10531
L10086 10550
L10104 10587
L10104 10625
L10086 10681
L9861 10906
L10104 10906
" />
<text x="9842.52" y="16870.1"
textLength="751.687" font-size="524.934" lengthAdjust="spacingAndGlyphs"
text-anchor="middle" opacity="0">J1</text>
<path d="M9711 16457
L9711 16738
L9692 16795
L9655 16832
L9598 16851
L9561 16851
" />
<path d="M10104 16851
L9880 16851
" />
<path d="M9992 16851
L9992 16457
L9955 16513
L9917 16551
L9880 16570
" />
<text x="26090.6" y="13881.9"
textLength="845.426" font-size="524.934" lengthAdjust="spacingAndGlyphs"
text-anchor="middle" opacity="0">D2</text>
<path d="M25799 13863
L25799 13469
L25893 13469
L25949 13488
L25987 13525
L26006 13563
L26024 13638
L26024 13694
L26006 13769
L25987 13806
L25949 13844
L25893 13863
L25799 13863
" />
<path d="M26174 13506
L26193 13488
L26231 13469
L26324 13469
L26362 13488
L26381 13506
L26399 13544
L26399 13581
L26381 13638
L26156 13863
L26399 13863
" />
<g >
</g>
</g> 
</svg>
